<svg xmlns="http://www.w3.org/2000/svg" viewBox="0 0 120 120">
  <defs>
    <linearGradient id="a" x1="41.97" y1="65.76" x2="14.21" y2="36.36" gradientUnits="userSpaceOnUse">
      <stop offset=".1" stop-color="#44c0eb"/>
      <stop offset=".25" stop-color="#43bce8"/>
      <stop offset=".39" stop-color="#41b1e1"/>
      <stop offset=".53" stop-color="#3c9ed4"/>
      <stop offset=".66" stop-color="#3784c1"/>
      <stop offset=".79" stop-color="#2f62aa"/>
      <stop offset=".89" stop-color="#284294"/>
    </linearGradient>
    <linearGradient id="b" x1="23.7" y1="83.46" x2="71.01" y2="83.46" gradientUnits="userSpaceOnUse">
      <stop offset=".16" stop-color="#44c0eb"/>
      <stop offset="1" stop-color="#284294"/>
    </linearGradient>
    <linearGradient id="c" x1="61.91" y1="91.25" x2="102.59" y2="21.76" gradientUnits="userSpaceOnUse">
      <stop offset=".28" stop-color="#1d4392"/>
      <stop offset=".41" stop-color="#6463a4"/>
      <stop offset=".64" stop-color="#e49dc5"/>
      <stop offset=".68" stop-color="#e396c1"/>
      <stop offset=".75" stop-color="#e084b7"/>
      <stop offset=".82" stop-color="#da65a6"/>
      <stop offset=".9" stop-color="#d33b8f"/>
      <stop offset=".92" stop-color="#d13089"/>
    </linearGradient>
    <linearGradient id="d" y1="38.71" x2="88.12" y2="38.71" gradientUnits="userSpaceOnUse">
      <stop offset="0" stop-color="#44c0eb"/>
      <stop offset=".24" stop-color="#43bde9"/>
      <stop offset=".41" stop-color="#41b4e3"/>
      <stop offset=".55" stop-color="#3ea5d8"/>
      <stop offset=".68" stop-color="#398fc9"/>
      <stop offset=".8" stop-color="#3373b6"/>
      <stop offset=".92" stop-color="#2b519e"/>
      <stop offset=".96" stop-color="#284294"/>
    </linearGradient>
    <linearGradient id="e" x1="65.02" y1="79.72" x2="28.3" y2="78.02" gradientUnits="userSpaceOnUse">
      <stop offset=".04" stop-color="#44c0eb"/>
      <stop offset=".08" stop-color="#44c0eb"/>
      <stop offset=".19" stop-color="#42b6e4"/>
      <stop offset=".37" stop-color="#3c9ad1"/>
      <stop offset=".6" stop-color="#326eb3"/>
      <stop offset=".81" stop-color="#284294"/>
    </linearGradient>
  </defs>
  <g transform="translate(10, 2)">
    <path d="M73.33 49.74c0 8.59-5.48 16.69-12.27 20.92a23.91 23.91 0 0 1-11.69 3 24 24 0 0 1 0-47.94h.5a23.95 23.95 0 0 1 23.47 24Z" style="fill:none"/>
    <path d="M33.45 67.66a24 24 0 0 1 15.91-41.89h.5q-.42-.09-.84-.15a38.05 38.05 0 0 0-28.14 6.78c-5.31 4.72-10 10.09-12.6 16.93-.08.23-.17.45-.25.67a38.49 38.49 0 0 0 .21 27.41 49.78 49.78 0 0 0 15.46 14.7 39.27 39.27 0 0 1 2.73-6.77c2.48-5.96 4.76-11.81 7.02-17.68Z" style="fill:url(#a)"/>
    <path d="M66.39 70.25a6.42 6.42 0 0 0-.52-2.07 43.2 43.2 0 0 1-4.82 2.49 23.91 23.91 0 0 1-11.69 3 24.18 24.18 0 0 1-3.09-.2 23.89 23.89 0 0 1-12.82-5.85c-2.26 5.87-4.54 11.72-7 17.68a39.27 39.27 0 0 0-2.73 6.77 49.64 49.64 0 0 0 46.9 2.38l.38-.15a89.8 89.8 0 0 1-4.61-24.05Z" style="fill:url(#b)"/>
    <path d="M99 49.63a49.47 49.47 0 0 0-13.44-34 44.92 44.92 0 0 1-3.89 37c-.15.24-.3.48-.44.72A43 43 0 0 1 66.1 68l-.23.14a6.42 6.42 0 0 1 .52 2.07A89.8 89.8 0 0 0 71 94.3a49.63 49.63 0 0 0 28-44.67Z" style="fill:url(#c)"/>
    <path d="M88.12 29.91a44.5 44.5 0 0 1-6.2 22.75c-.14.24-.29.48-.44.72A43 43 0 0 1 66.36 68a41.88 41.88 0 0 1-5 2.63c6.75-4.2 12.24-12.3 12.24-20.89a24 24 0 0 0-23.48-24q-.42-.09-.84-.15a38 38 0 0 0-28.13 6.81c-5.32 4.72-10 10.09-12.6 16.93-.09.23-.17.45-.25.67a38.49 38.49 0 0 0 .2 27.41 49.63 49.63 0 0 1 77.31-61.74 44.6 44.6 0 0 1 2.31 14.24Z" style="fill:url(#d)"/>
    <path d="m97.49 117-.23-16.19c.23-8.77-.08-13-5.2-17.34l-24.81-21L43.7 42.94l.24 16.19c-.24 8.77.08 13 5.19 17.34l11 9.28Z" style="fill:url(#e)"/>
  </g>
</svg>
